<mxfile host="app.diagrams.net" agent="Mozilla/5.0 (Windows NT 10.0; Win64; x64) AppleWebKit/537.36 (KHTML, like Gecko) Chrome/131.0.0.0 Safari/537.36 Edg/131.0.0.0" version="25.0.3">
  <diagram name="Page-1" id="_05OOUmR4TlbGt4T8MyM">
    <mxGraphModel dx="1186" dy="601" grid="1" gridSize="10" guides="1" tooltips="1" connect="1" arrows="1" fold="1" page="1" pageScale="1" pageWidth="1169" pageHeight="827" math="0" shadow="0">
      <root>
        <mxCell id="0" />
        <mxCell id="1" parent="0" />
        <mxCell id="VovwLzoJfqf_3oZHyuXF-1" value="User" style="shape=umlActor;verticalLabelPosition=bottom;verticalAlign=top;html=1;" parent="1" vertex="1">
          <mxGeometry x="120" y="380" width="30" height="60" as="geometry" />
        </mxCell>
        <mxCell id="VovwLzoJfqf_3oZHyuXF-3" value="Signup" style="ellipse;whiteSpace=wrap;html=1;" parent="1" vertex="1">
          <mxGeometry x="453" y="140" width="70" height="30" as="geometry" />
        </mxCell>
        <mxCell id="VovwLzoJfqf_3oZHyuXF-4" value="Login" style="ellipse;whiteSpace=wrap;html=1;" parent="1" vertex="1">
          <mxGeometry x="453" y="190" width="70" height="30" as="geometry" />
        </mxCell>
        <mxCell id="VovwLzoJfqf_3oZHyuXF-7" value="include" style="endArrow=open;endSize=12;dashed=1;html=1;rounded=0;exitX=1;exitY=0.5;exitDx=0;exitDy=0;entryX=0;entryY=0.5;entryDx=0;entryDy=0;" parent="1" source="VovwLzoJfqf_3oZHyuXF-4" target="VovwLzoJfqf_3oZHyuXF-10" edge="1">
          <mxGeometry width="160" relative="1" as="geometry">
            <mxPoint x="600" y="190" as="sourcePoint" />
            <mxPoint x="570" y="205" as="targetPoint" />
          </mxGeometry>
        </mxCell>
        <mxCell id="VovwLzoJfqf_3oZHyuXF-9" value="Profile Management" style="ellipse;whiteSpace=wrap;html=1;" parent="1" vertex="1">
          <mxGeometry x="414.5" y="250" width="147" height="40" as="geometry" />
        </mxCell>
        <mxCell id="VovwLzoJfqf_3oZHyuXF-10" value="validat Login Credetials" style="ellipse;whiteSpace=wrap;html=1;" parent="1" vertex="1">
          <mxGeometry x="800" y="180" width="170" height="50" as="geometry" />
        </mxCell>
        <mxCell id="VovwLzoJfqf_3oZHyuXF-15" value="Content Management" style="ellipse;whiteSpace=wrap;html=1;" parent="1" vertex="1">
          <mxGeometry x="414.5" y="310" width="147" height="40" as="geometry" />
        </mxCell>
        <mxCell id="VovwLzoJfqf_3oZHyuXF-16" value="Story Management" style="ellipse;whiteSpace=wrap;html=1;" parent="1" vertex="1">
          <mxGeometry x="414.5" y="380" width="147" height="40" as="geometry" />
        </mxCell>
        <mxCell id="VovwLzoJfqf_3oZHyuXF-17" value="Post Management" style="ellipse;whiteSpace=wrap;html=1;" parent="1" vertex="1">
          <mxGeometry x="414.5" y="440" width="147" height="40" as="geometry" />
        </mxCell>
        <mxCell id="VovwLzoJfqf_3oZHyuXF-21" value="extends" style="endArrow=open;endSize=12;dashed=1;html=1;rounded=0;exitX=0;exitY=0.5;exitDx=0;exitDy=0;entryX=0;entryY=0.5;entryDx=0;entryDy=0;" parent="1" source="VovwLzoJfqf_3oZHyuXF-16" target="VovwLzoJfqf_3oZHyuXF-15" edge="1">
          <mxGeometry width="160" relative="1" as="geometry">
            <mxPoint x="320" y="390" as="sourcePoint" />
            <mxPoint x="320" y="460" as="targetPoint" />
            <Array as="points">
              <mxPoint x="360" y="400" />
              <mxPoint x="359" y="330" />
            </Array>
          </mxGeometry>
        </mxCell>
        <mxCell id="VovwLzoJfqf_3oZHyuXF-22" value="extends" style="endArrow=open;endSize=12;dashed=1;html=1;rounded=0;exitX=1;exitY=0.5;exitDx=0;exitDy=0;" parent="1" source="VovwLzoJfqf_3oZHyuXF-17" target="VovwLzoJfqf_3oZHyuXF-15" edge="1">
          <mxGeometry width="160" relative="1" as="geometry">
            <mxPoint x="666" y="390" as="sourcePoint" />
            <mxPoint x="666" y="320" as="targetPoint" />
            <Array as="points">
              <mxPoint x="610" y="460" />
              <mxPoint x="610" y="330" />
            </Array>
          </mxGeometry>
        </mxCell>
        <mxCell id="VovwLzoJfqf_3oZHyuXF-23" value="Update Bio" style="ellipse;whiteSpace=wrap;html=1;" parent="1" vertex="1">
          <mxGeometry x="670" y="300" width="100" height="40" as="geometry" />
        </mxCell>
        <mxCell id="VovwLzoJfqf_3oZHyuXF-24" value="Update Profile img" style="ellipse;whiteSpace=wrap;html=1;" parent="1" vertex="1">
          <mxGeometry x="670" y="360" width="100" height="50" as="geometry" />
        </mxCell>
        <mxCell id="VovwLzoJfqf_3oZHyuXF-25" value="Update Cover img" style="ellipse;whiteSpace=wrap;html=1;" parent="1" vertex="1">
          <mxGeometry x="670" y="430" width="100" height="50" as="geometry" />
        </mxCell>
        <mxCell id="VovwLzoJfqf_3oZHyuXF-27" value="include" style="endArrow=open;endSize=12;dashed=1;html=1;rounded=0;exitX=1;exitY=0.5;exitDx=0;exitDy=0;entryX=0.439;entryY=-0.026;entryDx=0;entryDy=0;entryPerimeter=0;" parent="1" source="VovwLzoJfqf_3oZHyuXF-9" target="VovwLzoJfqf_3oZHyuXF-23" edge="1">
          <mxGeometry width="160" relative="1" as="geometry">
            <mxPoint x="533" y="225" as="sourcePoint" />
            <mxPoint x="810" y="225" as="targetPoint" />
            <Array as="points">
              <mxPoint x="714" y="270" />
            </Array>
          </mxGeometry>
        </mxCell>
        <mxCell id="VovwLzoJfqf_3oZHyuXF-28" value="include" style="endArrow=open;endSize=12;dashed=1;html=1;rounded=0;exitX=0.794;exitY=0.079;exitDx=0;exitDy=0;entryX=1;entryY=0.5;entryDx=0;entryDy=0;exitPerimeter=0;" parent="1" source="VovwLzoJfqf_3oZHyuXF-9" target="VovwLzoJfqf_3oZHyuXF-24" edge="1">
          <mxGeometry width="160" relative="1" as="geometry">
            <mxPoint x="571" y="280" as="sourcePoint" />
            <mxPoint x="724" y="309" as="targetPoint" />
            <Array as="points">
              <mxPoint x="800" y="253" />
              <mxPoint x="800" y="385" />
            </Array>
          </mxGeometry>
        </mxCell>
        <mxCell id="VovwLzoJfqf_3oZHyuXF-29" value="include" style="endArrow=open;endSize=12;dashed=1;html=1;rounded=0;exitX=1;exitY=1;exitDx=0;exitDy=0;entryX=0;entryY=0.5;entryDx=0;entryDy=0;" parent="1" source="VovwLzoJfqf_3oZHyuXF-9" target="VovwLzoJfqf_3oZHyuXF-25" edge="1">
          <mxGeometry width="160" relative="1" as="geometry">
            <mxPoint x="533" y="225" as="sourcePoint" />
            <mxPoint x="810" y="225" as="targetPoint" />
            <Array as="points">
              <mxPoint x="640" y="284" />
              <mxPoint x="640" y="455" />
            </Array>
          </mxGeometry>
        </mxCell>
        <mxCell id="VovwLzoJfqf_3oZHyuXF-33" value="Friend Management" style="ellipse;whiteSpace=wrap;html=1;" parent="1" vertex="1">
          <mxGeometry x="414.5" y="530" width="147" height="40" as="geometry" />
        </mxCell>
        <mxCell id="VovwLzoJfqf_3oZHyuXF-39" value="Add Friend" style="ellipse;whiteSpace=wrap;html=1;" parent="1" vertex="1">
          <mxGeometry x="670" y="580" width="100" height="40" as="geometry" />
        </mxCell>
        <mxCell id="VovwLzoJfqf_3oZHyuXF-40" value="Delete Friend" style="ellipse;whiteSpace=wrap;html=1;" parent="1" vertex="1">
          <mxGeometry x="670" y="640" width="100" height="50" as="geometry" />
        </mxCell>
        <mxCell id="VovwLzoJfqf_3oZHyuXF-41" value="Block Friend" style="ellipse;whiteSpace=wrap;html=1;" parent="1" vertex="1">
          <mxGeometry x="670" y="710" width="100" height="50" as="geometry" />
        </mxCell>
        <mxCell id="VovwLzoJfqf_3oZHyuXF-42" value="include" style="endArrow=open;endSize=12;dashed=1;html=1;rounded=0;exitX=1;exitY=0.5;exitDx=0;exitDy=0;entryX=0.439;entryY=-0.026;entryDx=0;entryDy=0;entryPerimeter=0;" parent="1" source="VovwLzoJfqf_3oZHyuXF-33" target="VovwLzoJfqf_3oZHyuXF-39" edge="1">
          <mxGeometry width="160" relative="1" as="geometry">
            <mxPoint x="533" y="505" as="sourcePoint" />
            <mxPoint x="810" y="505" as="targetPoint" />
            <Array as="points">
              <mxPoint x="714" y="550" />
            </Array>
          </mxGeometry>
        </mxCell>
        <mxCell id="VovwLzoJfqf_3oZHyuXF-43" value="include" style="endArrow=open;endSize=12;dashed=1;html=1;rounded=0;exitX=0.794;exitY=0.079;exitDx=0;exitDy=0;entryX=1;entryY=0.5;entryDx=0;entryDy=0;exitPerimeter=0;" parent="1" source="VovwLzoJfqf_3oZHyuXF-33" target="VovwLzoJfqf_3oZHyuXF-40" edge="1">
          <mxGeometry width="160" relative="1" as="geometry">
            <mxPoint x="571" y="560" as="sourcePoint" />
            <mxPoint x="724" y="589" as="targetPoint" />
            <Array as="points">
              <mxPoint x="800" y="533" />
              <mxPoint x="800" y="665" />
            </Array>
          </mxGeometry>
        </mxCell>
        <mxCell id="VovwLzoJfqf_3oZHyuXF-44" value="include" style="endArrow=open;endSize=12;dashed=1;html=1;rounded=0;exitX=1;exitY=1;exitDx=0;exitDy=0;entryX=0;entryY=0.5;entryDx=0;entryDy=0;" parent="1" source="VovwLzoJfqf_3oZHyuXF-33" target="VovwLzoJfqf_3oZHyuXF-41" edge="1">
          <mxGeometry width="160" relative="1" as="geometry">
            <mxPoint x="533" y="505" as="sourcePoint" />
            <mxPoint x="810" y="505" as="targetPoint" />
            <Array as="points">
              <mxPoint x="640" y="564" />
              <mxPoint x="640" y="735" />
            </Array>
          </mxGeometry>
        </mxCell>
        <mxCell id="VovwLzoJfqf_3oZHyuXF-49" value="" style="endArrow=none;html=1;edgeStyle=orthogonalEdgeStyle;rounded=0;entryX=0;entryY=0.5;entryDx=0;entryDy=0;" parent="1" target="VovwLzoJfqf_3oZHyuXF-3" edge="1">
          <mxGeometry relative="1" as="geometry">
            <mxPoint x="150" y="370" as="sourcePoint" />
            <mxPoint x="300" y="280" as="targetPoint" />
            <Array as="points">
              <mxPoint x="180" y="340" />
              <mxPoint x="175" y="340" />
              <mxPoint x="175" y="300" />
              <mxPoint x="220" y="300" />
              <mxPoint x="220" y="155" />
            </Array>
          </mxGeometry>
        </mxCell>
        <mxCell id="VovwLzoJfqf_3oZHyuXF-50" value="" style="endArrow=none;html=1;edgeStyle=orthogonalEdgeStyle;rounded=0;entryX=0;entryY=0.5;entryDx=0;entryDy=0;" parent="1" source="VovwLzoJfqf_3oZHyuXF-1" target="VovwLzoJfqf_3oZHyuXF-4" edge="1">
          <mxGeometry relative="1" as="geometry">
            <mxPoint x="210" y="90" as="sourcePoint" />
            <mxPoint x="350" y="90" as="targetPoint" />
            <Array as="points">
              <mxPoint x="260" y="380" />
              <mxPoint x="260" y="205" />
            </Array>
          </mxGeometry>
        </mxCell>
        <mxCell id="VovwLzoJfqf_3oZHyuXF-51" value="" style="endArrow=none;html=1;edgeStyle=orthogonalEdgeStyle;rounded=0;entryX=0;entryY=0.5;entryDx=0;entryDy=0;" parent="1" target="VovwLzoJfqf_3oZHyuXF-9" edge="1">
          <mxGeometry relative="1" as="geometry">
            <mxPoint x="160" y="400" as="sourcePoint" />
            <mxPoint x="310" y="520" as="targetPoint" />
            <Array as="points">
              <mxPoint x="230" y="400" />
              <mxPoint x="230" y="420" />
              <mxPoint x="293" y="420" />
              <mxPoint x="293" y="270" />
            </Array>
          </mxGeometry>
        </mxCell>
        <mxCell id="VovwLzoJfqf_3oZHyuXF-52" value="" style="endArrow=none;html=1;edgeStyle=orthogonalEdgeStyle;rounded=0;entryX=0.304;entryY=0;entryDx=0;entryDy=0;entryPerimeter=0;" parent="1" target="VovwLzoJfqf_3oZHyuXF-15" edge="1">
          <mxGeometry relative="1" as="geometry">
            <mxPoint x="170" y="430" as="sourcePoint" />
            <mxPoint x="294" y="540" as="targetPoint" />
            <Array as="points">
              <mxPoint x="180" y="450" />
              <mxPoint x="180" y="451" />
              <mxPoint x="330" y="451" />
              <mxPoint x="330" y="300" />
              <mxPoint x="459" y="300" />
            </Array>
          </mxGeometry>
        </mxCell>
        <mxCell id="VovwLzoJfqf_3oZHyuXF-53" value="" style="endArrow=none;html=1;edgeStyle=orthogonalEdgeStyle;rounded=0;entryX=0;entryY=0.5;entryDx=0;entryDy=0;" parent="1" target="VovwLzoJfqf_3oZHyuXF-33" edge="1">
          <mxGeometry relative="1" as="geometry">
            <mxPoint x="160" y="470" as="sourcePoint" />
            <mxPoint x="340" y="580" as="targetPoint" />
          </mxGeometry>
        </mxCell>
        <mxCell id="VovwLzoJfqf_3oZHyuXF-54" value="validat Input Credetials" style="ellipse;whiteSpace=wrap;html=1;" parent="1" vertex="1">
          <mxGeometry x="800" y="100" width="180" height="50" as="geometry" />
        </mxCell>
        <mxCell id="VovwLzoJfqf_3oZHyuXF-56" value="include" style="endArrow=open;endSize=12;dashed=1;html=1;rounded=0;exitX=1;exitY=0.5;exitDx=0;exitDy=0;entryX=0;entryY=0.5;entryDx=0;entryDy=0;" parent="1" source="VovwLzoJfqf_3oZHyuXF-3" target="VovwLzoJfqf_3oZHyuXF-54" edge="1">
          <mxGeometry width="160" relative="1" as="geometry">
            <mxPoint x="533" y="215" as="sourcePoint" />
            <mxPoint x="730" y="100" as="targetPoint" />
            <Array as="points">
              <mxPoint x="570" y="155" />
              <mxPoint x="570" y="125" />
            </Array>
          </mxGeometry>
        </mxCell>
        <mxCell id="-W5hQbS7uW5E7uI6vHQD-1" value="groups" style="ellipse;whiteSpace=wrap;html=1;" parent="1" vertex="1">
          <mxGeometry x="420" y="620" width="120" height="40" as="geometry" />
        </mxCell>
        <mxCell id="-W5hQbS7uW5E7uI6vHQD-2" value="" style="endArrow=none;html=1;rounded=0;exitX=0;exitY=0.5;exitDx=0;exitDy=0;" parent="1" source="-W5hQbS7uW5E7uI6vHQD-1" edge="1">
          <mxGeometry width="50" height="50" relative="1" as="geometry">
            <mxPoint x="450" y="590" as="sourcePoint" />
            <mxPoint x="150" y="490" as="targetPoint" />
            <Array as="points">
              <mxPoint x="240" y="640" />
              <mxPoint x="240" y="510" />
              <mxPoint x="150" y="510" />
            </Array>
          </mxGeometry>
        </mxCell>
        <mxCell id="-W5hQbS7uW5E7uI6vHQD-3" value="include" style="endArrow=open;endSize=12;dashed=1;html=1;rounded=0;exitX=0.953;exitY=0.782;exitDx=0;exitDy=0;entryX=0;entryY=0.5;entryDx=0;entryDy=0;exitPerimeter=0;" parent="1" source="-W5hQbS7uW5E7uI6vHQD-1" target="-W5hQbS7uW5E7uI6vHQD-4" edge="1">
          <mxGeometry width="160" relative="1" as="geometry">
            <mxPoint x="470" y="690" as="sourcePoint" />
            <mxPoint x="640" y="800" as="targetPoint" />
            <Array as="points">
              <mxPoint x="534" y="710" />
              <mxPoint x="590" y="710" />
              <mxPoint x="590" y="802" />
            </Array>
          </mxGeometry>
        </mxCell>
        <mxCell id="-W5hQbS7uW5E7uI6vHQD-4" value="Create group" style="ellipse;whiteSpace=wrap;html=1;" parent="1" vertex="1">
          <mxGeometry x="610" y="777" width="110" height="50" as="geometry" />
        </mxCell>
        <mxCell id="-W5hQbS7uW5E7uI6vHQD-5" value="Create post" style="ellipse;whiteSpace=wrap;html=1;" parent="1" vertex="1">
          <mxGeometry x="610" y="840" width="110" height="40" as="geometry" />
        </mxCell>
        <mxCell id="-W5hQbS7uW5E7uI6vHQD-6" value="include" style="endArrow=open;endSize=12;dashed=1;html=1;rounded=0;exitX=0.953;exitY=0.782;exitDx=0;exitDy=0;entryX=0;entryY=0.5;entryDx=0;entryDy=0;exitPerimeter=0;" parent="1" target="-W5hQbS7uW5E7uI6vHQD-5" edge="1">
          <mxGeometry width="160" relative="1" as="geometry">
            <mxPoint x="510" y="660" as="sourcePoint" />
            <mxPoint x="586" y="811" as="targetPoint" />
            <Array as="points">
              <mxPoint x="510" y="719" />
              <mxPoint x="566" y="719" />
              <mxPoint x="566" y="860" />
            </Array>
          </mxGeometry>
        </mxCell>
        <mxCell id="-W5hQbS7uW5E7uI6vHQD-7" value="include" style="endArrow=open;endSize=12;dashed=1;html=1;rounded=0;exitX=0.953;exitY=0.782;exitDx=0;exitDy=0;exitPerimeter=0;" parent="1" target="-W5hQbS7uW5E7uI6vHQD-8" edge="1">
          <mxGeometry width="160" relative="1" as="geometry">
            <mxPoint x="485" y="660" as="sourcePoint" />
            <mxPoint x="585" y="910" as="targetPoint" />
            <Array as="points">
              <mxPoint x="485" y="750" />
              <mxPoint x="540" y="750" />
              <mxPoint x="540" y="920" />
            </Array>
          </mxGeometry>
        </mxCell>
        <mxCell id="-W5hQbS7uW5E7uI6vHQD-8" value="Create story" style="ellipse;whiteSpace=wrap;html=1;" parent="1" vertex="1">
          <mxGeometry x="620" y="900" width="100" height="40" as="geometry" />
        </mxCell>
        <mxCell id="-W5hQbS7uW5E7uI6vHQD-9" value="" style="endArrow=none;html=1;rounded=0;" parent="1" target="-W5hQbS7uW5E7uI6vHQD-10" edge="1">
          <mxGeometry width="50" height="50" relative="1" as="geometry">
            <mxPoint x="130" y="490" as="sourcePoint" />
            <mxPoint x="390" y="810" as="targetPoint" />
            <Array as="points">
              <mxPoint x="130" y="530" />
              <mxPoint x="220" y="530" />
              <mxPoint x="220" y="670" />
              <mxPoint x="420" y="670" />
            </Array>
          </mxGeometry>
        </mxCell>
        <mxCell id="-W5hQbS7uW5E7uI6vHQD-10" value="search Engine" style="ellipse;whiteSpace=wrap;html=1;" parent="1" vertex="1">
          <mxGeometry x="370" y="760" width="110" height="58" as="geometry" />
        </mxCell>
        <mxCell id="-W5hQbS7uW5E7uI6vHQD-11" value="group&amp;nbsp;search&amp;nbsp;" style="ellipse;whiteSpace=wrap;html=1;" parent="1" vertex="1">
          <mxGeometry x="620" y="970" width="100" height="50" as="geometry" />
        </mxCell>
        <mxCell id="-W5hQbS7uW5E7uI6vHQD-12" value="User search" style="ellipse;whiteSpace=wrap;html=1;" parent="1" vertex="1">
          <mxGeometry x="620" y="1040" width="100" height="60" as="geometry" />
        </mxCell>
        <mxCell id="-W5hQbS7uW5E7uI6vHQD-13" value="include" style="endArrow=open;endSize=12;dashed=1;html=1;rounded=0;entryX=0;entryY=0.5;entryDx=0;entryDy=0;exitX=1;exitY=1;exitDx=0;exitDy=0;" parent="1" source="-W5hQbS7uW5E7uI6vHQD-10" target="-W5hQbS7uW5E7uI6vHQD-11" edge="1">
          <mxGeometry width="160" relative="1" as="geometry">
            <mxPoint x="471" y="810" as="sourcePoint" />
            <mxPoint x="575" y="1078" as="targetPoint" />
            <Array as="points">
              <mxPoint x="464" y="890" />
              <mxPoint x="510" y="890" />
              <mxPoint x="510" y="995" />
            </Array>
          </mxGeometry>
        </mxCell>
        <mxCell id="-W5hQbS7uW5E7uI6vHQD-14" value="include" style="endArrow=open;endSize=12;dashed=1;html=1;rounded=0;entryX=0;entryY=0.5;entryDx=0;entryDy=0;exitX=1;exitY=1;exitDx=0;exitDy=0;" parent="1" target="-W5hQbS7uW5E7uI6vHQD-12" edge="1">
          <mxGeometry width="160" relative="1" as="geometry">
            <mxPoint x="430" y="818" as="sourcePoint" />
            <mxPoint x="586" y="1003" as="targetPoint" />
            <Array as="points">
              <mxPoint x="430" y="910" />
              <mxPoint x="476" y="910" />
              <mxPoint x="476" y="1070" />
            </Array>
          </mxGeometry>
        </mxCell>
      </root>
    </mxGraphModel>
  </diagram>
</mxfile>
